<svg viewBox="0 0 493.71 493.71" xml:space="preserve" xmlns="http://www.w3.org/2000/svg">
  <circle style="fill:#f7b239" cx="246.855" cy="246.855" r="246.855"/>
  <path style="fill:#e09b2d" d="M117.158 376.545C28.356 287.743 21.359 148.119 96.159 51.304a249.063 249.063 0 0 0-23.858 20.999c-96.401 96.401-96.401 252.698 0 349.099 96.401 96.401 252.698 96.401 349.099 0a249.34 249.34 0 0 0 20.999-23.858c-96.814 74.799-236.44 67.802-325.241-20.999z"/>
  <path style="fill:#fff" d="M122.417 255.464h248.868c0 13.968-2.306 27.4-6.551 39.941H128.968c-4.245-12.541-6.551-25.972-6.551-39.941z"/>
  <path style="fill:#a81004" d="M128.968 295.405h235.765c-8.369 24.716-24.289 45.931-45.016 60.924-8.71-14.676-24.716-24.509-43.027-24.509a49.746 49.746 0 0 0-29.84 9.882 49.782 49.782 0 0 0-29.852-9.882c-18.299 0-34.317 9.833-43.015 24.509-20.726-14.993-36.646-36.208-45.015-60.924z"/>
  <path style="fill:#f95428" d="M276.691 331.82c18.311 0 34.317 9.833 43.027 24.509-20.483 14.834-45.662 23.569-72.867 23.569-27.205 0-52.384-8.735-72.867-23.569 8.698-14.676 24.716-24.509 43.015-24.509a49.782 49.782 0 0 1 29.852 9.882 49.746 49.746 0 0 1 29.84-9.882z"/>
  <path d="M371.285 246.315H122.417a9.15 9.15 0 0 0-9.15 9.15c0 14.662 2.367 29.087 7.034 42.876 8.934 26.382 25.643 48.999 48.314 65.4 22.86 16.557 49.914 25.309 78.235 25.309 28.32 0 55.373-8.752 78.23-25.305 22.676-16.405 39.386-39.02 48.319-65.402 4.667-13.789 7.034-28.214 7.034-42.875a9.148 9.148 0 0 0-9.148-9.153zm-9.508 18.299a114.819 114.819 0 0 1-3.809 21.642H135.733a114.885 114.885 0 0 1-3.809-21.642zm-174.704 89.439c7.649-8.21 18.499-13.083 29.926-13.083 8.87 0 17.302 2.79 24.385 8.067a9.15 9.15 0 0 0 10.934 0c7.082-5.279 15.509-8.067 24.372-8.067 11.421 0 22.272 4.871 29.932 13.085-17.972 10.947-38.452 16.692-59.772 16.692-21.32.002-41.802-5.745-59.777-16.694zm134.454-10.762c-11.137-12.9-27.533-20.621-44.838-20.621-10.623 0-20.819 2.77-29.84 8.066-9.021-5.295-19.221-8.066-29.852-8.066-17.311 0-33.707 7.722-44.829 20.617-12.623-10.71-22.68-23.855-29.665-38.733h208.694c-6.985 14.88-17.043 28.025-29.67 38.737zM197.823 200.732a9.15 9.15 0 0 0-3.657-9.523l-54.287-38.174a9.15 9.15 0 1 0-10.525 14.968l35.988 25.306-75.523 12.47a9.15 9.15 0 0 0-7.537 10.518c.739 4.481 4.619 7.66 9.017 7.66.495 0 .997-.04 1.502-.123l97.595-16.113a9.148 9.148 0 0 0 7.427-6.989zM403.884 205.78l-75.524-12.469 35.988-25.306c4.133-2.907 5.129-8.614 2.222-12.747-2.907-4.134-8.615-5.129-12.747-2.222l-54.287 38.174a9.152 9.152 0 0 0 3.772 16.512l97.595 16.113a9.154 9.154 0 0 0 10.519-7.537 9.15 9.15 0 0 0-7.538-10.518z"/>
</svg>
